<?xml version="1.0" encoding="UTF-8"?>
<svg id="Layer_1" xmlns="http://www.w3.org/2000/svg" version="1.1" viewBox="0 0 631.1 155.41">
  <!-- Generator: Adobe Illustrator 30.5.1, SVG Export Plug-In . SVG Version: 2.1.4 Build 3)  -->
  <defs>
    <style>
      .st0 {
        fill: #fff;
      }
    </style>
  </defs>
  <g>
    <rect class="st0" x="51.14" y="-5.19" width="51.79" height="166.09" transform="translate(-32.49 77.27) rotate(-45)"/>
    <polygon class="st0" points="215.9 155.38 164.09 155.41 164.09 0 215.9 0 215.9 155.38"/>
    <rect class="st0" x="0" y="103.6" width="51.83" height="51.81"/>
  </g>
  <g>
    <path class="st0" d="M267.75,52.36h15.57l13.79,31.51,13.79-31.51h15.49v52.34h-12.68v-31.81l-13.72,31.81h-5.86l-13.72-31.81v31.81h-12.68v-52.34Z"/>
    <path class="st0" d="M382.07,94.84h-20.46l-3.04,9.86h-13.94l17.2-52.34h20.02l17.2,52.34h-13.94l-3.04-9.86ZM378.95,84.76l-7.04-22.69h-.15l-7.04,22.69h14.23Z"/>
    <path class="st0" d="M423.29,82.16l-17.05-29.8h14.53l9.19,17.13,9.19-17.13h14.53l-16.98,29.8v22.54h-13.42v-22.54Z"/>
    <path class="st0" d="M481.04,63.41h-11.27v-11.05h35.88v11.05h-11.2v41.29h-13.42v-41.29Z"/>
    <path class="st0" d="M524.71,52.36h34.7v10.97h-21.28v9.56h21.06v10.53h-21.06v10.31h21.28v10.97h-34.7v-52.34Z"/>
    <path class="st0" d="M595.51,76.68l-17.05-24.32h15.72l9.49,14.46,9.49-14.46h15.72l-17.05,24.54,19.28,27.8h-15.87l-11.57-17.5-11.57,17.5h-16.01l19.42-28.02Z"/>
  </g>
</svg>